<?xml version="1.0" standalone="no"?>
<!DOCTYPE svg PUBLIC "-//W3C//DTD SVG 20010904//EN"
 "http://www.w3.org/TR/2001/REC-SVG-20010904/DTD/svg10.dtd">
<svg version="1.0" xmlns="http://www.w3.org/2000/svg"
 width="1448.000000pt" height="317.000000pt" viewBox="0 0 1448.000000 317.000000"
 preserveAspectRatio="xMidYMid meet">

<g transform="translate(0.000000,317.000000) scale(0.100000,-0.100000)"
fill="#000000" stroke="none">
<path d="M1390 3120 c-248 -35 -502 -135 -703 -277 -105 -74 -286 -255 -360
-360 -120 -168 -213 -384 -259 -597 -32 -149 -32 -446 0 -596 105 -484 394
-863 826 -1081 494 -250 1084 -213 1551 99 136 91 328 283 418 417 268 406
335 884 186 1339 -175 533 -606 918 -1164 1036 -114 24 -385 35 -495 20z m416
-454 c476 -101 833 -501 873 -979 38 -450 -191 -870 -587 -1075 -166 -87 -314
-122 -509 -122 -314 0 -584 116 -800 343 -262 276 -363 677 -263 1047 31 115
129 301 210 402 164 202 421 351 678 393 105 17 295 13 398 -9z"/>
<path d="M4005 3120 c-135 -28 -257 -117 -314 -229 -53 -102 -51 -60 -51
-1406 0 -883 3 -1262 11 -1290 15 -53 91 -129 144 -144 113 -31 216 14 267
116 l23 48 5 1227 5 1227 925 -1232 c509 -677 945 -1251 970 -1275 223 -215
599 -122 713 176 l22 57 3 1255 c2 889 0 1270 -8 1306 -21 97 -113 173 -211
174 -65 0 -146 -43 -184 -98 l-30 -44 -5 -1249 -5 -1249 -935 1241 c-553 735
-956 1261 -987 1289 -55 50 -127 84 -217 101 -56 10 -85 10 -141 -1z"/>
<path d="M14327 1152 c-21 -23 -22 -76 -1 -96 8 -9 31 -16 49 -16 58 0 86 69
45 110 -25 25 -72 26 -93 2z"/>
<path d="M9583 938 c-13 -18 -333 -735 -333 -748 0 -5 23 -10 51 -10 l51 0 36
80 36 80 212 0 211 0 36 -80 36 -80 57 0 c49 0 55 2 50 18 -4 9 -82 182 -173
385 l-167 367 -47 0 c-25 0 -51 -6 -56 -12z m93 -201 c18 -39 55 -123 82 -184
l51 -113 -164 0 c-110 0 -165 4 -165 11 0 15 152 359 159 359 3 0 20 -33 37
-73z"/>
<path d="M10150 565 l0 -385 50 0 50 0 2 177 3 176 182 -176 183 -177 70 0
c38 0 70 3 69 8 -1 4 -90 92 -200 195 l-198 188 107 102 c59 56 148 141 197
189 l90 88 -68 0 -69 0 -174 -167 c-96 -93 -179 -169 -184 -171 -6 -2 -10 62
-10 167 l0 171 -50 0 -50 0 0 -385z"/>
<path d="M10986 578 c-93 -205 -170 -379 -173 -386 -4 -10 8 -12 52 -10 l58 3
33 75 33 75 213 3 214 2 34 -80 34 -80 58 0 c32 0 58 1 58 3 0 1 -78 174 -173
382 l-173 380 -50 3 -51 3 -167 -373z m299 55 c44 -97 82 -180 83 -185 2 -4
-71 -8 -162 -8 -91 0 -166 3 -166 7 0 13 155 363 160 363 3 0 42 -79 85 -177z"/>
<path d="M11715 939 c-3 -8 -4 -181 -3 -384 l3 -370 195 0 c220 1 264 9 357
72 96 65 143 165 143 308 0 186 -81 305 -244 358 -80 26 -442 39 -451 16z
m392 -104 c75 -22 126 -65 159 -131 24 -49 28 -70 28 -138 0 -93 -21 -152 -72
-202 -61 -61 -143 -84 -303 -84 l-99 0 0 285 0 285 118 0 c76 0 136 -5 169
-15z"/>
<path d="M12540 570 l0 -380 280 0 280 0 0 45 0 45 -222 2 -223 3 -3 118 -3
117 186 0 186 0 -3 48 -3 47 -182 3 -183 2 0 115 0 115 225 0 225 0 0 50 0 50
-280 0 -280 0 0 -380z"/>
<path d="M13240 564 l0 -385 53 3 52 3 3 320 2 320 144 -320 144 -320 48 0 49
0 141 313 c78 172 144 316 148 319 3 4 6 -138 6 -315 l0 -322 55 0 55 0 0 385
0 385 -83 0 -83 0 -141 -311 -141 -311 -20 38 c-10 22 -74 162 -142 312 l-123
272 -83 0 -84 0 0 -386z"/>
<path d="M14320 565 l0 -386 53 3 52 3 0 380 0 380 -52 3 -53 3 0 -386z"/>
</g>
</svg>
